<svg width="80" height="80" viewBox="0 0 80 80" fill="none" xmlns="http://www.w3.org/2000/svg">
<path d="M46.7962 78.4375H32.7336V65H46.7962V78.4375ZM37.4211 75.3125H42.1087V69.6875H37.4211V75.3125Z" fill="#8B8992"/>
<path d="M39.9993 69.6875H42.1086V75.3125H39.9993V78.4375H46.7962V65H39.9993V69.6875Z" fill="#57555C"/>
<path d="M75.0774 58.75H4.92114V21.25H75.0774V58.75Z" fill="#9BC9FF"/>
<path d="M75.0764 21.25H39.9983V58.75H75.0764V21.25Z" fill="#009AE5"/>
<path d="M51.4827 75.3125H28.0452V80H51.4827V75.3125Z" fill="#005ECE"/>
<path d="M37.4211 58.75H23.3586V26.7188H37.4211V58.75Z" fill="#B87FD9"/>
<path d="M37.4211 58.75H30.3899V26.7188H37.4211V58.75Z" fill="#8034AD"/>
<path d="M45.2629 20.4688H15.359L9.27917 0H18.2234C21.417 0 25.134 1.14281 28.0453 3.20344V0H51.3426L45.2629 20.4688Z" fill="#8B8992"/>
<path d="M51.3435 0H30.3118V20.4688H45.2638L51.3435 0Z" fill="#57555C"/>
<path d="M38.8274 31.4062H21.9524C18.0754 31.4062 14.9211 28.252 14.9211 24.375V15.7812H45.8587V24.375C45.8587 28.252 42.7044 31.4062 38.8274 31.4062Z" fill="#E3CEF0"/>
<path d="M30.3899 15.7812V31.4062H38.8274C42.7044 31.4062 45.8587 28.252 45.8587 24.375V15.7812H30.3899Z" fill="#D5B4E8"/>
<path d="M66.8291 18.4916C65.4024 18.4916 63.9946 18.1175 62.7258 17.385C60.8213 16.2853 59.4588 14.5099 58.8897 12.3855C58.3205 10.2613 58.6125 8.04252 59.7122 6.13799C60.8119 4.23346 62.5874 2.87112 64.7117 2.3019L72.6646 0.170959L74.7953 8.12377C75.3646 10.248 75.0725 12.4667 73.9728 14.3713C72.8731 16.2758 71.0978 17.6383 68.9735 18.2074C68.2642 18.3975 67.5441 18.4916 66.8291 18.4916Z" fill="#E0E0E2"/>
<path d="M74.7953 8.12377L72.6645 0.170959H72.6644L62.726 17.3849C63.9947 18.1174 65.4025 18.4916 66.8292 18.4914C67.5444 18.4914 68.2644 18.3974 68.9736 18.2074C71.0978 17.6381 72.8733 16.2758 73.973 14.3713C75.0725 12.4667 75.3645 10.248 74.7953 8.12377Z" fill="#ACABB1"/>
<path d="M43.8934 64.0664L31.715 57.0352L51.2462 23.2061L63.4246 30.2374L43.8934 64.0664Z" fill="#FFE477"/>
<path d="M37.8033 60.5503L43.8922 64.0659L63.4231 30.2384L57.3341 26.7229L37.8033 60.5503Z" fill="#FFA733"/>
<path d="M62.8847 35.3386L47.0978 26.2241L60.7023 10.8041L69.4364 15.8467L62.8847 35.3386Z" fill="#FF9A00"/>
<path d="M69.4367 15.8468L65.0697 13.3255L54.9916 30.7813L62.885 35.3386L69.4367 15.8468Z" fill="#E67500"/>
<path d="M75.0774 69.6875H4.92114V54.0625H75.0774V69.6875Z" fill="#005ECE"/>
<path d="M75.0764 54.0625H39.9983V69.6875H75.0764V54.0625Z" fill="#003F8A"/>
<path d="M51.4827 75.3125H39.7639V80H51.4827V75.3125Z" fill="#003F8A"/>
</svg>
