<svg width="50" height="50" viewBox="0 0 50 50" fill="none" xmlns="http://www.w3.org/2000/svg">
<g clip-path="url(#clip0_332_4070)">
<path d="M49.7139 9.17148L40.8271 0.286035C40.644 0.10293 40.3957 0 40.1367 0H11.1328C9.51738 0 8.20312 1.31426 8.20312 2.92969V4.79141C3.40576 6.67324 0 11.3491 0 16.8058C0 17.345 0.437305 17.7823 0.976562 17.7823H12.8995C13.4388 17.7823 13.8761 17.345 13.8761 16.8058V4.88281C13.8761 4.34355 13.4388 3.90625 12.8995 3.90625C11.9583 3.90625 11.0407 4.0085 10.1562 4.20088V2.92969C10.1562 2.39121 10.5943 1.95312 11.1328 1.95312H39.1602V7.91016C39.1602 9.52559 40.4744 10.8398 42.0898 10.8398H48.0469V47.0703C48.0469 47.6088 47.6088 48.0469 47.0703 48.0469H11.1328C10.5943 48.0469 10.1562 47.6088 10.1562 47.0703V38.7044C10.1562 38.1651 9.71895 37.7278 9.17969 37.7278C8.64043 37.7278 8.20312 38.1651 8.20312 38.7044V47.0703C8.20312 48.6857 9.51738 50 11.1328 50H47.0703C48.6857 50 50 48.6857 50 47.0703V9.86201C50 9.60303 49.8971 9.35459 49.7139 9.17148ZM11.9229 5.90264V15.8292H1.99629C2.46318 10.5706 6.66436 6.36953 11.9229 5.90264ZM42.0898 8.88672C41.5514 8.88672 41.1133 8.44863 41.1133 7.91016V3.33398L46.6668 8.88672H42.0898Z" fill="white"/>
<path d="M9.87002 34.4658C9.68848 34.2841 9.43652 34.1797 9.17969 34.1797C8.92285 34.1797 8.6709 34.2841 8.48926 34.4658C8.30762 34.6475 8.20312 34.8994 8.20312 35.1562C8.20312 35.4131 8.30752 35.665 8.48926 35.8466C8.6709 36.0283 8.92285 36.1328 9.17969 36.1328C9.43652 36.1328 9.68848 36.0283 9.87002 35.8466C10.0518 35.665 10.1562 35.4131 10.1562 35.1562C10.1562 34.8994 10.0518 34.6475 9.87002 34.4658Z" fill="white"/>
<path d="M16.3979 7.4043C15.8587 7.4043 15.4214 7.8416 15.4214 8.38086V19.3271H4.4751C3.93584 19.3271 3.49854 19.7645 3.49854 20.3037C3.49854 27.4165 9.28516 33.2032 16.3979 33.2032C23.5107 33.2032 29.2975 27.4165 29.2975 20.3037C29.2975 13.1909 23.5107 7.4043 16.3979 7.4043ZM17.3745 9.40068C19.6606 9.60361 21.7467 10.5128 23.4132 11.9075L17.3745 17.9461V9.40068ZM16.3979 31.2501C10.6912 31.2501 5.99033 26.8605 5.49492 21.2803H16.3979C16.6675 21.2803 16.9114 21.1711 17.0882 20.9945C17.0883 20.9944 17.0884 20.9944 17.0886 20.9942L24.7945 13.2884C26.3854 15.1895 27.3443 17.6367 27.3443 20.3037C27.3443 26.3396 22.4338 31.2501 16.3979 31.2501Z" fill="white"/>
<path d="M42.7812 30.8208C41.1657 30.8208 39.8515 32.1351 39.8515 33.7505C39.8515 34.1554 39.9341 34.5412 40.0832 34.8923L34.457 40.5186C34.0703 40.3302 33.6364 40.2242 33.1782 40.2242C32.7308 40.2242 32.3068 40.3254 31.9272 40.5054L28.191 36.7692C28.3205 36.4388 28.3924 36.0795 28.3924 35.7035C28.3924 34.0881 27.0781 32.7738 25.4627 32.7738C23.8473 32.7738 22.533 34.0881 22.533 35.7035C22.533 36.1412 22.6302 36.5564 22.8031 36.9298L19.2196 40.5133C18.8378 40.3307 18.4107 40.2282 17.9601 40.2282C16.3447 40.2282 15.0304 41.5425 15.0304 43.1579C15.0304 44.7733 16.3447 46.0876 17.9601 46.0876C19.5755 46.0876 20.8898 44.7733 20.8898 43.1579C20.8898 42.7051 20.7865 42.276 20.6023 41.8929L24.1657 38.3294C24.5571 38.5235 24.9973 38.6332 25.4629 38.6332C25.9888 38.6332 26.4823 38.4933 26.9093 38.2497L30.5401 41.8805C30.3533 42.2657 30.2485 42.6978 30.2485 43.1539C30.2485 44.7693 31.5627 46.0836 33.1782 46.0836C34.7936 46.0836 36.1078 44.7693 36.1078 43.1539C36.1078 42.7088 36.0076 42.2867 35.8292 41.9086L41.403 36.3349C41.814 36.555 42.2832 36.6802 42.7812 36.6802C44.3966 36.6802 45.7109 35.3659 45.7109 33.7505C45.7109 32.1351 44.3966 30.8208 42.7812 30.8208ZM17.96 44.1346C17.4215 44.1346 16.9834 43.6965 16.9834 43.158C16.9834 42.6195 17.4215 42.1814 17.96 42.1814C18.2222 42.1814 18.46 42.2858 18.6356 42.4546C18.6395 42.4587 18.6429 42.4631 18.6469 42.4671C18.6516 42.4718 18.6567 42.4757 18.6615 42.4802C18.8314 42.656 18.9365 42.8948 18.9365 43.158C18.9365 43.6964 18.4985 44.1346 17.96 44.1346ZM25.4627 36.6801C24.9242 36.6801 24.4862 36.242 24.4862 35.7035C24.4862 35.165 24.9242 34.727 25.4627 34.727C26.0012 34.727 26.4393 35.165 26.4393 35.7035C26.4393 36.242 26.0012 36.6801 25.4627 36.6801ZM33.178 44.1305C32.6395 44.1305 32.2014 43.6924 32.2014 43.1539C32.2014 42.6154 32.6395 42.1773 33.178 42.1773C33.7164 42.1773 34.1545 42.6154 34.1545 43.1539C34.1545 43.6924 33.7164 44.1305 33.178 44.1305ZM42.781 34.727C42.2425 34.727 41.8044 34.2889 41.8044 33.7504C41.8044 33.2119 42.2426 32.7738 42.781 32.7738C43.3195 32.7738 43.7575 33.2119 43.7575 33.7504C43.7575 34.2889 43.3195 34.727 42.781 34.727Z" fill="white"/>
<path d="M37.8998 22.9492H32.7456C32.2063 22.9492 31.769 23.3865 31.769 23.9258C31.769 24.465 32.2062 24.9023 32.7456 24.9023H37.8998C38.4391 24.9023 38.8764 24.465 38.8764 23.9258C38.8764 23.3865 38.4391 22.9492 37.8998 22.9492Z" fill="white"/>
<path d="M43.0368 23.2354C42.8552 23.0537 42.6033 22.9492 42.3464 22.9492C42.0896 22.9492 41.8376 23.0536 41.656 23.2354C41.4744 23.417 41.3699 23.6689 41.3699 23.9258C41.3699 24.1826 41.4743 24.4346 41.656 24.6161C41.8376 24.7978 42.0886 24.9023 42.3464 24.9023C42.6033 24.9023 42.8552 24.7979 43.0368 24.6161C43.2184 24.4346 43.323 24.1826 43.323 23.9258C43.323 23.6689 43.2185 23.417 43.0368 23.2354Z" fill="white"/>
<path d="M44.6747 13.5742H32.7456C32.2063 13.5742 31.769 14.0115 31.769 14.5508C31.769 15.09 32.2062 15.5273 32.7456 15.5273H44.6747C45.214 15.5273 45.6513 15.09 45.6513 14.5508C45.6513 14.0115 45.214 13.5742 44.6747 13.5742Z" fill="white"/>
<path d="M44.6747 18.2617H32.7456C32.2063 18.2617 31.769 18.699 31.769 19.2383C31.769 19.7775 32.2062 20.2148 32.7456 20.2148H44.6747C45.214 20.2148 45.6513 19.7775 45.6513 19.2383C45.6513 18.699 45.214 18.2617 44.6747 18.2617Z" fill="white"/>
</g>
<defs>
<clipPath id="clip0_332_4070">
<rect width="50" height="50" fill="white"/>
</clipPath>
</defs>
</svg>
