<svg width="50" height="50" viewBox="0 0 50 50" fill="none" xmlns="http://www.w3.org/2000/svg">
<path d="M47.6562 43.7501H46.875V15.6251C46.875 15.4179 46.7927 15.2192 46.6462 15.0726C46.4997 14.9261 46.3009 14.8438 46.0938 14.8438H33.8234C34.4422 13.0752 34.8495 11.2395 35.0367 9.37508H39.0625C39.217 9.37504 39.368 9.32921 39.4965 9.24336C39.6249 9.15751 39.725 9.03551 39.7841 8.89278C39.8432 8.75004 39.8587 8.59298 39.8286 8.44146C39.7985 8.28993 39.7241 8.15074 39.6148 8.04148L33.3648 1.79148C33.2183 1.64502 33.0197 1.56274 32.8125 1.56274C32.6053 1.56274 32.4067 1.64502 32.2602 1.79148L26.0102 8.04148C25.9009 8.15074 25.8265 8.28993 25.7964 8.44146C25.7663 8.59298 25.7818 8.75004 25.8409 8.89278C25.9 9.03551 26.0001 9.15751 26.1285 9.24336C26.257 9.32921 26.408 9.37504 26.5625 9.37508H29.0289C28.1166 11.4385 26.7997 13.2981 25.1562 14.8438H3.90625C3.69905 14.8438 3.50034 14.9261 3.35382 15.0726C3.20731 15.2192 3.125 15.4179 3.125 15.6251V43.7501H2.34375C2.13655 43.7501 1.93784 43.8324 1.79132 43.9789C1.64481 44.1254 1.5625 44.3241 1.5625 44.5313V46.0938C1.5625 46.7154 1.80943 47.3116 2.24897 47.7511C2.68851 48.1906 3.28465 48.4376 3.90625 48.4376H46.0938C46.7154 48.4376 47.3115 48.1906 47.751 47.7511C48.1906 47.3116 48.4375 46.7154 48.4375 46.0938V44.5313C48.4375 44.3241 48.3552 44.1254 48.2087 43.9789C48.0622 43.8324 47.8634 43.7501 47.6562 43.7501ZM30.9188 8.86023C30.9616 8.74224 30.9753 8.61567 30.9588 8.49124C30.9423 8.3668 30.8961 8.24818 30.8241 8.14539C30.752 8.04261 30.6563 7.9587 30.5449 7.90077C30.4336 7.84284 30.3099 7.81259 30.1844 7.81258H28.4484L32.8125 3.44851L37.1766 7.81258H34.3172C34.1186 7.81214 33.9273 7.88734 33.7822 8.02288C33.6371 8.15842 33.549 8.34413 33.5359 8.54226C33.1772 13.6982 31.0525 18.573 27.5197 22.3456C23.987 26.1181 19.262 28.5579 14.1406 29.254L11.7188 29.5759V21.0087C15.8095 21.3766 19.9076 20.3858 23.3784 18.1897C26.8493 15.9936 29.4995 12.7145 30.9188 8.86023ZM4.6875 16.4063H23.2258C19.7399 18.8698 15.4546 19.9313 11.2219 19.3798L11.0437 19.3548C10.9331 19.3396 10.8205 19.3483 10.7136 19.3803C10.6066 19.4123 10.5077 19.4669 10.4236 19.5403C10.3395 19.6137 10.2721 19.7043 10.226 19.806C10.1799 19.9077 10.1561 20.0181 10.1562 20.1298V30.4688C10.1562 30.676 10.2386 30.8747 10.3851 31.0213C10.5316 31.1678 10.7303 31.2501 10.9375 31.2501C10.972 31.2501 11.0064 31.2477 11.0406 31.243L14.3438 30.8032C18.466 30.241 22.3718 28.6189 25.6795 26.0955C28.9872 23.572 31.5835 20.2335 33.2148 16.4063H45.3125V43.7501H43.75V18.7501C43.75 18.5429 43.6677 18.3442 43.5212 18.1976C43.3747 18.0511 43.1759 17.9688 42.9688 17.9688H34.375V19.5313H42.1875V43.7501H7.8125V19.5313H9.375V17.9688H7.03125C6.82405 17.9688 6.62534 18.0511 6.47882 18.1976C6.33231 18.3442 6.25 18.5429 6.25 18.7501V43.7501H4.6875V16.4063ZM46.875 46.0938C46.875 46.301 46.7927 46.4997 46.6462 46.6463C46.4997 46.7928 46.3009 46.8751 46.0938 46.8751H3.90625C3.69905 46.8751 3.50034 46.7928 3.35382 46.6463C3.20731 46.4997 3.125 46.301 3.125 46.0938V45.3126H46.875V46.0938Z" fill="white"/>
<path d="M9.375 42.9688H40.625V41.4062H37.5V23.4375C37.5 23.2303 37.4177 23.0316 37.2712 22.8851C37.1247 22.7386 36.926 22.6562 36.7188 22.6562H32.0312C31.824 22.6562 31.6253 22.7386 31.4788 22.8851C31.3323 23.0316 31.25 23.2303 31.25 23.4375V41.4062H28.125V29.6875C28.125 29.4803 28.0427 29.2816 27.8962 29.1351C27.7497 28.9886 27.551 28.9062 27.3438 28.9062H22.6562C22.449 28.9062 22.2503 28.9886 22.1038 29.1351C21.9573 29.2816 21.875 29.4803 21.875 29.6875V41.4062H18.75V33.5938C18.75 33.3865 18.6677 33.1878 18.5212 33.0413C18.3747 32.8948 18.176 32.8125 17.9688 32.8125H13.2812C13.074 32.8125 12.8753 32.8948 12.7288 33.0413C12.5823 33.1878 12.5 33.3865 12.5 33.5938V41.4062H9.375V42.9688ZM32.8125 24.2188H35.9375V41.4062H32.8125V24.2188ZM23.4375 30.4688H26.5625V41.4062H23.4375V30.4688ZM14.0625 34.375H17.1875V41.4062H14.0625V34.375Z" fill="white"/>
<path d="M21.0938 1.5625H22.6562V3.125H21.0938V1.5625Z" fill="white"/>
<path d="M22.6562 3.125H24.2188V4.6875H22.6562V3.125Z" fill="white"/>
<path d="M21.0938 4.6875H22.6562V6.25H21.0938V4.6875Z" fill="white"/>
<path d="M19.5312 3.125H21.0938V4.6875H19.5312V3.125Z" fill="white"/>
<path d="M17.9688 7.8125H19.5312V9.375H17.9688V7.8125Z" fill="white"/>
<path d="M46.875 9.375H48.4375V10.9375H46.875V9.375Z" fill="white"/>
<path d="M45.3125 10.9375H46.875V12.5H45.3125V10.9375Z" fill="white"/>
<path d="M43.75 9.375H45.3125V10.9375H43.75V9.375Z" fill="white"/>
<path d="M45.3125 7.8125H46.875V9.375H45.3125V7.8125Z" fill="white"/>
<path d="M42.1875 4.6875H43.75V6.25H42.1875V4.6875Z" fill="white"/>
<path d="M14.0625 25.0001H12.5V27.3438C12.5 27.551 12.5823 27.7498 12.7288 27.8963C12.8753 28.0428 13.074 28.1251 13.2812 28.1251C15.951 28.0088 18.5357 27.1518 20.7461 25.6501L19.8789 24.3501C18.138 25.5218 16.1452 26.2664 14.0625 26.5235V25.0001Z" fill="white"/>
<path d="M12.5 21.875H14.0625V23.4375H12.5V21.875Z" fill="white"/>
</svg>
